<svg width="45" height="45" viewBox="0 0 45 45" fill="none" xmlns="http://www.w3.org/2000/svg">
<rect width="45" height="45" fill="white"/>
<path d="M16.0529 30.8182H13.3687C12.8164 30.8182 12.3687 30.3705 12.3687 29.8182V15C12.3687 14.4477 12.8164 14 13.3687 14H29.3292C29.8815 14 30.3292 14.4477 30.3292 15V29.8182C30.3292 30.3705 29.8815 30.8182 29.3292 30.8182H20.1976" stroke="#05065C" stroke-width="1.4" stroke-linejoin="round"/>
<path d="M37.6975 30.818H40.0002V23.1816C40.0002 19.8679 37.3139 17.1816 34.0002 17.1816H30.3291" stroke="#05065C" stroke-width="1.4" stroke-linejoin="round"/>
<path d="M33.092 30.8184L28.9473 30.8184" stroke="#05065C" stroke-width="1.4"/>
<path d="M9.60526 18.5459L5 18.5459" stroke="#05065C" stroke-width="1.4" stroke-linecap="round" stroke-linejoin="round"/>
<path d="M9.60511 22.1816L5.9209 22.1816" stroke="#05065C" stroke-width="1.4" stroke-linecap="round" stroke-linejoin="round"/>
<path d="M9.60544 25.8184H6.84229" stroke="#05065C" stroke-width="1.4" stroke-linecap="round" stroke-linejoin="round"/>
<path d="M19.9577 31.2732C19.9577 32.3842 19.0426 33.3004 17.8945 33.3004C16.7464 33.3004 15.8313 32.3842 15.8313 31.2732C15.8313 30.1621 16.7464 29.2459 17.8945 29.2459C19.0426 29.2459 19.9577 30.1621 19.9577 31.2732Z" stroke="#05065C" stroke-width="1.4"/>
<path d="M37.4577 31.2732C37.4577 32.3842 36.5426 33.3004 35.3945 33.3004C34.2464 33.3004 33.3313 32.3842 33.3313 31.2732C33.3313 30.1621 34.2464 29.2459 35.3945 29.2459C36.5426 29.2459 37.4577 30.1621 37.4577 31.2732Z" stroke="#05065C" stroke-width="1.4"/>
</svg>
